<svg xmlns="http://www.w3.org/2000/svg" height="40" width="640" viewBox="0 0 640.00001 40.000001"><defs><clipPath id="b"><path d="M0 896h896V0H0v896z"/></clipPath><clipPath id="a"><path d="M0 896h896V0H0v896z"/></clipPath></defs><path d="M87.43 32.526l5-15 15 10 5-20" stroke="#00b798" stroke-width="2" fill="none"/><g fill-rule="evenodd" stroke="#e9edf0" stroke-width="1.5" fill="#00b798"><path d="M85.942 30.062v4h4v-4zM90.765 15.946v4h4v-4zM105.29 25.118v4h4v-4zM110.06 5.938v4h4v-4z"/></g><path d="M127.43 32.526l5-15 15 10 5-20" stroke="#fff" stroke-width="2" fill="none"/><g fill-rule="evenodd" stroke="#002a50" stroke-width="1.5" fill="#fff"><path d="M125.94 30.062v4h4v-4zM130.77 15.946v4h4v-4zM145.29 25.118v4h4v-4zM150.06 5.938v4h4v-4z"/></g><g fill-rule="evenodd" fill="#00b798"><path d="M168.31 29.938l3-19.875 14.75-3 5 25.875z" fill-opacity=".4" stroke="#00b798" stroke-width="2"/><g stroke="#e9edf0" stroke-width="1.5"><path d="M183.94 5.063v4h4v-4zM169.19 8.313v4h4v-4zM166.31 27.938v4h4v-4zM189.69 30.938v4h4v-4z"/></g></g><g fill-rule="evenodd" fill="#fff"><path d="M208.31 29.938l3-19.875 14.75-3 5 25.875z" fill-opacity=".4" stroke="#fff" stroke-width="2"/><g stroke="#002a50" stroke-width="1.5"><path d="M223.94 5.063v4h4v-4zM209.19 8.313v4h4v-4zM206.31 27.938v4h4v-4zM229.69 30.938v4h4v-4z"/></g></g><path d="M261.81 30.74l-1.553-5.098h-7.807l-1.553 5.098h-4.893l7.56-21.504h5.55l7.59 21.504h-4.894zm-2.637-8.906q-2.153-6.93-2.43-7.837-.265-.908-.382-1.436-.483 1.876-2.768 9.274h5.58z" fill="#00b798"/><g stroke="#00b798" fill="none"><path d="M271.5 31.04v-22"/><path d="M269 8.56h5M269 31.44h5" stroke-width="1.118"/></g><text font-size="12.5" y="30.752" x="286" font-family="sans-serif" fill="#fff" word-spacing="0" letter-spacing="0"><tspan font-weight="bold" font-size="30" y="30.752" x="286" font-family="'Open Sans'">A</tspan></text><g stroke="#fff" fill="none"><path d="M311.5 31.04v-22"/><path d="M309 8.56h5M309 31.44h5" stroke-width="1.118"/></g><path d="M356.64 21.782l-3.416-3.414c-.472-.47-1.236-.47-1.708 0l-.854.854c-.47.47-.47 1.235 0 1.706l3.416 3.414c.472.47 1.236.47 1.708 0l.854-.853c.472-.473.472-1.237 0-1.708m-10.714 10.93c-.005 0-.012.01-.02.013-.004 0-.01.01-.014.01-.005 0-.01.01-.016.01-.005 0-.01.01-.017.01-.2.12-.783.425-2.2.937-.165.06-.345.123-.534.19l-2.014-2.013c.066-.19.13-.373.19-.54.51-1.42.818-2.004.936-2.202.003 0 .006-.01.008-.013.004-.01.008-.013.012-.02.003 0 .006-.01.008-.012.005-.01.01-.014.013-.02l.146-.147 3.65 3.647-.15.15zm3.882-10.93c-.47-.47-1.236-.47-1.708 0l-.427.427-5.977 5.973h.002l-.19.188s-.6.605-1.956 4.976c-.01.03-.02.06-.028.092-.024.078-.05.158-.074.24-.02.07-.043.143-.066.216l-.056.186-.13.44c-.098.33-.336 1.074-.067 1.343.26.26 1.014.03 1.343-.066l.437-.13.194-.06c.07-.02.137-.04.205-.062l.25-.077c.025-.01.05-.015.073-.023 4.166-1.295 4.914-1.903 4.976-1.96h.004l.193-.192.012.013 5.977-5.974.427-.427c.472-.47.472-1.235 0-1.707l-3.416-3.414z" fill="#00b798"/><path d="M329 8l-2 2v16l2 2h10l8-8V10l-2-2z" fill-rule="evenodd" fill="#00b798"/><g fill="#fff"><path d="M396.64 21.782l-3.416-3.414c-.472-.47-1.236-.47-1.708 0l-.854.854c-.47.47-.47 1.235 0 1.706l3.416 3.414c.472.47 1.236.47 1.708 0l.854-.853c.472-.473.472-1.237 0-1.708m-10.714 10.93c-.005 0-.012.01-.02.013-.004 0-.01.01-.014.01-.005 0-.01.01-.016.01-.005 0-.01.01-.017.01-.2.12-.783.425-2.2.937-.165.06-.345.123-.534.19l-2.014-2.013c.066-.19.13-.373.19-.54.51-1.42.818-2.004.936-2.202.003 0 .006-.01.008-.013.004-.01.008-.013.012-.02.003 0 .006-.01.008-.012.005-.01.01-.014.013-.02l.146-.147 3.65 3.647-.15.15zm3.882-10.93c-.47-.47-1.236-.47-1.708 0l-.427.427-5.977 5.973h.002l-.19.188s-.6.605-1.956 4.976c-.01.03-.02.06-.028.092-.024.078-.05.158-.074.24-.02.07-.043.143-.066.216l-.056.186-.13.44c-.098.33-.336 1.074-.067 1.343.26.26 1.014.03 1.343-.066l.437-.13.194-.06c.07-.02.137-.04.205-.062l.25-.077c.025-.01.05-.015.073-.023 4.166-1.295 4.914-1.903 4.976-1.96h.004l.193-.192.012.013 5.977-5.974.427-.427c.472-.47.472-1.235 0-1.707l-3.416-3.414z" stroke="#eff" stroke-width=".03"/><path d="M369 8l-2 2v16l2 2h10l8-8V10l-2-2zM460.53 23.97c-3.16 1.63-1.157 5.534-4.74 6.803-3.763 1.334-6.892-3.492-7.676-6.963-.3-1.333-.92-12.314 11.138-14.593 9.407-1.778 12.657 7.854 12.72 10.89.058 2.89.37 9.04-4.44 8.962-4.06-.066-3.203-4.064-6.88-5.038-1.956-.518-.122-.062-.122-.062z" fill-rule="evenodd"/></g><ellipse rx="2.438" ry="2.5" cy="24.812" cx="454.19" fill="#002a50"/><g stroke="#002a50" stroke-linecap="round" stroke-width="1.736" fill="none"><path d="M452.78 18.54l4.34-2.604M453.64 16.81l2.604-1.736M454.51 18.54l1.736-.868"/><g><path d="M461.47 17.13l4.34-2.604M462.34 15.39l2.604-1.736M463.21 17.13l1.736-.868"/></g><g><path d="M464.91 23.22l4.34-2.604M465.77 21.48l2.604-1.736M466.64 23.22l1.736-.868"/></g></g><path d="M420.53 23.97c-3.16 1.63-1.157 5.534-4.74 6.803-3.763 1.334-6.892-3.492-7.676-6.963-.3-1.333-.92-12.314 11.138-14.593 9.407-1.778 12.657 7.854 12.72 10.89.058 2.89.37 9.04-4.44 8.962-4.06-.066-3.203-4.064-6.88-5.038-1.956-.518-.122-.062-.122-.062z" fill-rule="evenodd" fill="#00b798"/><ellipse rx="2.438" ry="2.5" cy="24.812" cx="414.19" fill="#e9edf0"/><g stroke="#edeff0" stroke-linecap="round" stroke-width="1.736" fill="none"><path d="M412.78 18.54l4.34-2.604M413.64 16.81l2.604-1.736M414.51 18.54l1.736-.868"/><g><path d="M421.47 17.13l4.34-2.604M422.34 15.39l2.604-1.736M423.21 17.13l1.736-.868"/></g><g><path d="M424.91 23.22l4.34-2.604M425.77 21.48l2.604-1.736M426.64 23.22l1.736-.868"/></g></g><g clip-path="url(#a)" transform="matrix(.02976 0 0 -.02902 6.667 33)" fill="#00b798"><path d="M448 448c-61.772 0-112 50.23-112 112s50.228 112 112 112c61.77 0 112-50.23 112-112s-50.23-112-112-112m0 448c-185.28 0-336-150.72-336-336 0-70.587 21.958-138.3 63.424-195.89l8.818-12.36 241.36-340.54C430.898 4.16 439.212 0 448.002 0c8.788 0 17.102 4.157 22.394 11.21l238.36 336.49 11.76 16.3c41.53 57.697 63.49 125.41 63.49 196 0 185.28-150.72 336-336 336"/></g><g clip-path="url(#b)" transform="matrix(.02976 0 0 -.02902 46.667 33)" fill="#fff"><path d="M448 448c-61.772 0-112 50.23-112 112s50.228 112 112 112c61.77 0 112-50.23 112-112s-50.23-112-112-112m0 448c-185.28 0-336-150.72-336-336 0-70.587 21.958-138.3 63.424-195.89l8.818-12.36 241.36-340.54C430.898 4.16 439.212 0 448.002 0c8.788 0 17.102 4.157 22.394 11.21l238.36 336.49 11.76 16.3c41.53 57.697 63.49 125.41 63.49 196 0 185.28-150.72 336-336 336"/></g><g stroke-linejoin="round" stroke="#fff" stroke-linecap="round" fill="none" stroke-width="3.814"><path d="M611.93 11.93l16.148 16.148M628.07 11.93l-16.148 16.148"/></g><g stroke-linejoin="round" stroke="#00b798" stroke-linecap="round" fill="none" stroke-width="3.814"><path d="M571.93 11.93l16.148 16.148M588.07 11.93l-16.148 16.148"/></g><path d="M487 30.04l1.004-6L493 29.03z" fill-rule="evenodd" fill="#00b798"/><g fill="#00b798" transform="translate(-48 -972.36)"><circle cx="541" cy="987.36" r="5"/><circle cx="555" cy="987.36" r="5"/><circle cx="555" cy="996.36" r="5"/><rect rx="0" ry="0" height="11" width="14" y="982.36" x="541"/><path d="M550 987.36h10v9h-10z"/><path d="M544 993.36h11v8h-11zM536 987.36h7v6h-7z"/><path d="M536 993.36l8 8v-8z" fill-rule="evenodd"/></g><g fill="#edeff0"><path d="M493 14h15v1h-15zM493 18h15v1h-15zM496 22h12v1h-12z"/></g><path d="M527 30l1.004-6L533 28.99z" fill-rule="evenodd" fill="#fff"/><g fill="#fff" transform="translate(-8 -972.36)"><circle cy="987.36" cx="541" r="5"/><circle cy="987.36" cx="555" r="5"/><circle cy="996.36" cx="555" r="5"/><rect rx="0" ry="0" height="11" width="14" y="982.36" x="541"/><path d="M550 987.36h10v9h-10z"/><path d="M544 993.36h11v8h-11zM536 987.36h7v6h-7z"/><path d="M536 993.36l8 8v-8z" fill-rule="evenodd"/></g><g fill="#002a50"><path d="M533 14h15v1h-15zM533 18h15v1h-15zM536 22h12v1h-12z"/></g></svg>