<svg xmlns="http://www.w3.org/2000/svg" viewBox="0 0 30 120"><g stroke-linejoin="round" stroke="#00b798" stroke-linecap="round" stroke-width="3" fill="none"><path d="M688 326.4v8h20v-8M698 312.4v14" transform="matrix(.6086 0 0 .5595 -409.8 -136)"/><path d="M693 321.4l5 5 5-5" transform="matrix(.6086 0 0 .5595 -409.8 -136)"/></g><g fill="#fff" transform="translate(-505 -857.4)"><rect rx="0" ry="0" height="14" width="1" y="925.4" x="513"/><rect rx="0" ry="0" height="8" width="1" y="925.4" x="514"/><path d="M515 930.4h1v3h-1zM516 931.4h8v2h-8z"/><rect rx="0" ry="0" height="14" width="1" y="925.4" x="526"/><path d="M525 925.4h1v8h-1zM524 930.4h1v3h-1zM515 934.4h10v2h-10zM520 936.4h5v3h-5zM517 937.4h2v2h-2zM515 936.4h1v3h-1zM519 925.4h5v5h-5zM516 928.4h3v2h-3zM516 925.4h1v3h-1zM517 925.4h2v1h-2z"/></g><g fill="#00b798" transform="translate(-540 -827.4)"><rect rx="0" ry="0" height="14" width="1" y="925.4" x="548"/><rect rx="0" ry="0" height="8" width="1" y="925.4" x="549"/><path d="M550 930.4h1v3h-1zM551 931.4h8v2h-8z"/><rect rx="0" ry="0" height="14" width="1" y="925.4" x="561"/><path d="M560 925.4h1v8h-1zM559 930.4h1v3h-1zM550 934.4h10v2h-10zM555 936.4h5v3h-5zM552 937.4h2v2h-2zM550 936.4h1v3h-1zM554 925.4h5v5h-5zM551 928.4h3v2h-3zM551 925.4h1v3h-1zM552 925.4h2v1h-2z"/></g><g stroke-linejoin="round" stroke="#fff" stroke-linecap="round" stroke-width="3" fill="none"><path d="M688 326.4v8h20v-8M698 312.4v14" transform="matrix(.6086 0 0 .5595 -409.8 -166)"/><path d="M693 321.4l5 5 5-5" transform="matrix(.6086 0 0 .5595 -409.8 -166)"/></g></svg>