<svg xmlns="http://www.w3.org/2000/svg" viewBox="0 0 16 16"><defs><clipPath id="a"><path d="M0 841.9h595.3V0H0v841.9z"/></clipPath></defs><g clip-path="url(#a)" transform="matrix(.02352 0 0 -.02352 1 18)" fill="#00b798"><path d="M368.4 420.9l212.2 212.2c19.54 19.54 19.54 51.21 0 70.75s-51.21 19.54-70.75 0l-212.2-212.3-212.2 212.3c-19.54 19.54-51.21 19.54-70.75 0-19.53-19.54-19.53-51.21 0-70.75L227 420.9 14.8 208.7c-19.53-19.54-19.53-51.21 0-70.75 19.54-19.54 51.21-19.54 70.75 0l212.2 212.2 212.2-212.2c19.53-19.54 51.21-19.54 70.75 0s19.54 51.21 0 70.75L368.5 420.9z"/></g></svg>